<svg width="800" height="800" viewBox="0 0 800 800" fill="none" xmlns="http://www.w3.org/2000/svg">
<path d="M562.5 126.5H564V125V50C564 43.7674 566.476 37.7901 570.883 33.383C575.29 28.9759 581.267 26.5 587.5 26.5H675C681.233 26.5 687.21 28.9759 691.617 33.383C696.024 37.7901 698.5 43.7674 698.5 50V324.073L599.329 373.658L598.5 374.073V375C598.5 449.18 600.881 522.726 618.848 623.5H181.152C199.119 522.737 201.5 450.128 201.5 375V374.073L200.671 373.658L101.5 324.073V50C101.5 43.7674 103.976 37.7901 108.383 33.383C112.79 28.9759 118.767 26.5 125 26.5H212.656C218.889 26.5 224.866 28.9759 229.273 33.383C233.68 37.7901 236.156 43.7674 236.156 50V125V126.5H237.656H312.5H314V125V50C314 43.7674 316.476 37.7901 320.883 33.383C325.29 28.9759 331.267 26.5 337.5 26.5H462.5C468.733 26.5 474.71 28.9759 479.117 33.383C483.524 37.7901 486 43.7674 486 50V125V126.5H487.5H562.5ZM450 476.5H451.5V475V375C451.5 361.341 446.074 348.242 436.416 338.584C426.758 328.926 413.659 323.5 400 323.5C386.341 323.5 373.242 328.926 363.584 338.584C353.926 348.242 348.5 361.341 348.5 375V475V476.5H350H450ZM108.383 683.383C112.79 678.976 118.767 676.5 125 676.5H675C681.233 676.5 687.21 678.976 691.617 683.383C696.024 687.79 698.5 693.767 698.5 700V750C698.5 756.233 696.024 762.21 691.617 766.617C687.21 771.024 681.233 773.5 675 773.5H125C118.767 773.5 112.79 771.024 108.383 766.617C103.976 762.21 101.5 756.233 101.5 750V700C101.5 693.767 103.976 687.79 108.383 683.383Z" fill="white" stroke="#170557" stroke-width="3"/>
</svg>
